<?xml version="1.0" encoding="UTF-8"?>
<!DOCTYPE svg PUBLIC "-//W3C//DTD SVG 1.1//EN" "http://www.w3.org/Graphics/SVG/1.1/DTD/svg11.dtd">
<!-- Creator: CorelDRAW 2018 (64 Bit Versão de avaliação) -->
<?xml-stylesheet href="estrela.css" type="text/css"?>
<svg xmlns="http://www.w3.org/2000/svg" xml:space="preserve" width="42px" height="59px" version="1.1" style="shape-rendering:geometricPrecision; text-rendering:geometricPrecision; image-rendering:optimizeQuality; fill-rule:evenodd; clip-rule:evenodd"
viewBox="0 0 42 59.4"
 xmlns:xlink="http://www.w3.org/1999/xlink">
 <defs>
   <clipPath id="id0">
    <rect x="5.15" y="13.92" width="33.13" height="31.18"/>
   </clipPath>
 </defs>
 <g id="Camada_x0020_1">
  <metadata id="CorelCorpID_0Corel-Layer"/>
  <g style="clip-path:url(#id0)">
   <image x="5.15" y="13.92" width="33.13" height="31.18" xlink:href="estrela_Images\estrela_ImgID1.png"/>
  </g>
  <path class="fil0 str0" d="M17.27 25.28l-12.12 0 0 0.27c0.12,0.03 1.05,0.8 1.17,0.9 0.21,0.16 0.38,0.3 0.58,0.45 0.58,0.44 1.2,0.97 1.76,1.38 0.11,0.08 0.19,0.15 0.29,0.23 0.1,0.09 0.18,0.14 0.29,0.23l4.67 3.67c0.75,0.62 0.65,0.26 0.39,1.19 -0.07,0.26 -0.14,0.48 -0.22,0.73l-0.42 1.46c-0.42,1.41 -0.91,2.99 -1.29,4.38 -0.14,0.48 -0.28,0.97 -0.43,1.46 -0.08,0.23 -0.14,0.48 -0.22,0.73l-0.63 2.19c0.1,-0.02 0.22,-0.13 0.32,-0.19l9.97 -6.66 9.01 6.01c0.19,0.13 1.18,0.81 1.31,0.84l-1.28 -4.38c-0.47,-1.67 -1.03,-3.41 -1.51,-5.1 -0.07,-0.25 -0.13,-0.48 -0.21,-0.73 -0.08,-0.25 -0.14,-0.48 -0.21,-0.73l-0.23 -0.75c0.12,-0.03 1.59,-1.22 1.81,-1.39l3.03 -2.39c0.1,-0.07 0.19,-0.14 0.29,-0.22l2.41 -1.89c0.11,-0.09 0.19,-0.15 0.3,-0.24l1.22 -0.96c0.12,-0.1 0.53,-0.4 0.59,-0.49l-12.39 0 -1.37 -3.9c-0.04,-0.11 -0.08,-0.23 -0.13,-0.36 -0.05,-0.12 -0.08,-0.22 -0.12,-0.34l-0.38 -1.08c-0.44,-1.26 -0.96,-2.64 -1.38,-3.89 -0.09,-0.27 -0.6,-1.65 -0.61,-1.79l-0.27 0 -0.61 1.76c-0.43,1.28 -0.95,2.63 -1.39,3.91l-1.99 5.69z"/>
 </g>
</svg>
